<svg width="20" height="20" viewBox="0 0 20 20" fill="none" xmlns="http://www.w3.org/2000/svg">
<path d="M9.99933 1.80171C12.67 1.80171 12.9856 1.8111 14.041 1.85944C15.0158 1.90374 15.5448 2.06619 15.898 2.20313C16.3293 2.36945 16.721 2.62432 17.0478 2.9513C17.3746 3.27827 17.6292 3.67009 17.7952 4.1015C17.9295 4.45325 18.0947 4.98355 18.139 5.95825C18.1873 7.01215 18.1981 7.32899 18.1981 9.99799C18.1981 12.667 18.1873 12.9838 18.139 14.0377C18.0947 15.0084 17.9389 15.5454 17.7952 15.8945C17.6292 16.3259 17.3746 16.7177 17.0478 17.0447C16.721 17.3717 16.3293 17.6265 15.898 17.7928C15.5448 17.9271 15.0158 18.0922 14.041 18.1365C12.9856 18.1849 12.67 18.1956 9.99933 18.1956C7.32863 18.1956 7.01309 18.1849 5.95905 18.1365C4.98422 18.0922 4.45384 17.9298 4.10205 17.7928C3.6707 17.6265 3.27901 17.3717 2.95222 17.0447C2.62543 16.7177 2.37081 16.3259 2.20477 15.8945C2.07049 15.5427 1.90399 15.0138 1.85968 14.0391C1.81135 12.9838 1.80195 12.6683 1.80195 9.99799C1.80195 7.32765 1.81135 7.01215 1.85968 5.95825C1.90399 4.98355 2.06781 4.45325 2.20477 4.1015C2.37155 3.66944 2.6272 3.27721 2.95519 2.95019C3.28317 2.62318 3.67617 2.36867 4.10876 2.20313C4.46056 2.06887 4.99094 1.90374 5.96576 1.85944C7.0198 1.8111 7.33669 1.80171 10.006 1.80171H9.99933ZM10.006 0C7.29104 0 6.94998 0.0107405 5.88385 0.0590724C5.05417 0.0765988 4.23341 0.234102 3.45619 0.524938C2.79074 0.781098 2.18621 1.17356 1.68142 1.67713C1.17663 2.1807 0.782728 2.78424 0.525008 3.44902C0.233594 4.22686 0.0764963 5.04856 0.0604231 5.87904C0.010742 6.94502 0 7.28469 0 10.0007C0 12.7167 0.010742 13.0563 0.0604231 14.1236C0.0769251 14.9528 0.234017 15.7731 0.525008 16.5496C0.781613 17.2141 1.17433 17.8176 1.67796 18.3214C2.1816 18.8252 2.78501 19.2182 3.44948 19.4751C4.22662 19.766 5.04747 19.9231 5.87714 19.9396C6.94327 19.9879 7.28432 20 9.99933 20C12.7143 20 13.0554 19.9879 14.1229 19.9396C14.9525 19.9231 15.7734 19.766 16.5505 19.4751C17.215 19.2182 17.8184 18.8252 18.322 18.3214C18.8257 17.8176 19.2184 17.2141 19.475 16.5496C19.766 15.7731 19.9231 14.9528 19.9396 14.1236C19.9879 13.0563 20 12.7167 20 10.0007C20 7.28469 19.9879 6.94502 19.9396 5.87904C19.9232 5.04947 19.7661 4.2287 19.475 3.4517C19.218 2.78758 18.8251 2.18444 18.3215 1.68091C17.818 1.17738 17.2147 0.784567 16.5505 0.527623C15.7733 0.236787 14.9525 0.079284 14.1229 0.0617575C13.0487 0.0134257 12.7157 0.00268517 9.99933 0.00268517L10.006 0Z" fill="url(#paint0_linear_29_490)"/>
<path d="M9.99945 4.86401C8.98399 4.86428 7.9914 5.1656 7.1472 5.72989C6.303 6.29417 5.64509 7.09608 5.25667 8.0342C4.86826 8.97233 4.76677 10.0045 4.96504 11.0003C5.16331 11.9961 5.65243 12.9108 6.37057 13.6286C7.08871 14.3465 8.00361 14.8353 8.99958 15.0333C9.99556 15.2313 11.0279 15.1295 11.966 14.7409C12.9042 14.3523 13.706 13.6943 14.2701 12.8501C14.8343 12.0058 15.1354 11.0133 15.1354 9.99794C15.1354 9.32363 15.0025 8.65592 14.7444 8.03296C14.4863 7.41 14.108 6.84398 13.631 6.36723C13.1541 5.89048 12.5879 5.51235 11.9648 5.25443C11.3417 4.9965 10.6738 4.86384 9.99945 4.86401ZM9.99945 13.3315C9.34005 13.3315 8.69546 13.136 8.14719 12.7697C7.59892 12.4034 7.17159 11.8828 6.91925 11.2736C6.66691 10.6645 6.60088 9.99424 6.72953 9.34759C6.85817 8.70094 7.1757 8.10696 7.64197 7.64075C8.10823 7.17455 8.70229 6.85706 9.34902 6.72843C9.99575 6.59981 10.6661 6.66582 11.2753 6.91813C11.8845 7.17044 12.4052 7.59771 12.7716 8.14591C13.1379 8.69411 13.3334 9.33862 13.3334 9.99794C13.3334 10.8821 12.9822 11.73 12.3569 12.3551C11.7317 12.9803 10.8837 13.3315 9.99945 13.3315Z" fill="url(#paint1_linear_29_490)"/>
<path d="M15.3382 5.86166C16.0012 5.86166 16.5386 5.3243 16.5386 4.66142C16.5386 3.99855 16.0012 3.46118 15.3382 3.46118C14.6752 3.46118 14.1377 3.99855 14.1377 4.66142C14.1377 5.3243 14.6752 5.86166 15.3382 5.86166Z" fill="url(#paint2_linear_29_490)"/>
<defs>
<linearGradient id="paint0_linear_29_490" x1="10" y1="0" x2="10" y2="20" gradientUnits="userSpaceOnUse">
<stop stop-color="#D9AD95"/>
<stop offset="1" stop-color="#AD6952"/>
</linearGradient>
<linearGradient id="paint1_linear_29_490" x1="10.0008" y1="4.86401" x2="10.0008" y2="15.1319" gradientUnits="userSpaceOnUse">
<stop stop-color="#D9AD95"/>
<stop offset="1" stop-color="#AD6952"/>
</linearGradient>
<linearGradient id="paint2_linear_29_490" x1="15.3382" y1="3.46118" x2="15.3382" y2="5.86166" gradientUnits="userSpaceOnUse">
<stop stop-color="#D9AD95"/>
<stop offset="1" stop-color="#AD6952"/>
</linearGradient>
</defs>
</svg>
