<svg width="20" height="15" viewBox="0 0 20 15" fill="none" xmlns="http://www.w3.org/2000/svg">
<path d="M19.1884 14.256H0.81092C0.704457 14.256 0.59903 14.235 0.500659 14.1943C0.402289 14.1536 0.312901 14.0939 0.2376 14.0186C0.162299 13.9434 0.10256 13.854 0.0617922 13.7557C0.0210247 13.6573 2.76422e-05 13.5519 0 13.4455V0.81071C5.58237e-05 0.595677 0.0855165 0.38947 0.237588 0.237439C0.389659 0.085407 0.595887 -7.24607e-09 0.81092 0H19.1893C19.4041 0.000223136 19.6102 0.0857287 19.762 0.237736C19.9139 0.389744 19.9993 0.595823 19.9993 0.81071V13.4455C19.9992 13.6604 19.9137 13.8666 19.7617 14.0186C19.6096 14.1706 19.4034 14.256 19.1884 14.256ZM1.621 12.6345H18.3783V1.62142H1.621V12.6345Z" fill="white"/>
<path d="M9.99954 7.84374C9.83749 7.8439 9.67914 7.79535 9.54503 7.70438L0.356073 1.48227C0.212423 1.38494 0.103779 1.24411 0.0461056 1.08046C-0.0115679 0.916808 -0.0152291 0.738975 0.03566 0.57309C0.0865491 0.407206 0.189305 0.262018 0.328827 0.158864C0.468349 0.0557089 0.63728 2.69265e-05 0.810795 0H19.1891C19.3626 8.34544e-05 19.5315 0.0557828 19.671 0.158921C19.8105 0.262058 19.9132 0.407201 19.9641 0.573038C20.0151 0.738874 20.0115 0.916668 19.9539 1.08031C19.8963 1.24396 19.7878 1.38484 19.6443 1.48227L10.4541 7.70332C10.3201 7.79467 10.1617 7.84359 9.99954 7.84374ZM3.45408 1.62142L9.99954 6.05433L16.545 1.62142H3.45408Z" fill="white"/>
</svg>
