<svg width="20" height="20" viewBox="0 0 20 20" fill="none" xmlns="http://www.w3.org/2000/svg">
<path d="M7.90383 5.85192C8.36802 4.78649 8.13328 3.54554 7.31207 2.72322L5.41594 0.827999C4.78604 0.190575 3.88801 -0.105026 3.00263 0.0335619C2.10724 0.165063 1.3295 0.718626 0.911964 1.52157C-0.00484056 3.24694 -0.240676 5.25359 0.251153 7.14448C1.46281 11.9439 8.05927 18.5448 12.8577 19.7474C13.5055 19.9117 14.1711 19.9954 14.8393 19.9965C16.1092 19.9957 17.3594 19.6836 18.4807 19.0875C19.8641 18.3661 20.4007 16.6597 19.6792 15.2763C19.5468 15.0223 19.3765 14.7899 19.1742 14.5872L17.279 12.6911C16.4563 11.8697 15.2151 11.635 14.1494 12.0993C13.6521 12.3136 13.1985 12.6178 12.8114 12.9965C12.3478 13.4628 10.638 12.7874 8.92638 11.0767C7.21475 9.36602 6.54122 7.65623 7.00206 7.19082C7.38231 6.80364 7.68799 6.34981 7.90383 5.85192ZM7.63842 12.3638C9.72271 14.4463 12.526 15.8507 14.0922 14.2836C14.3228 14.0628 14.5917 13.8856 14.8857 13.7609C15.2633 13.6 15.7008 13.6861 15.9892 13.9782L17.8844 15.8734C18.1103 16.0967 18.2151 16.4149 18.1662 16.7288C18.1187 17.0513 17.9187 17.3311 17.629 17.4805C16.3017 18.1937 14.7526 18.3744 13.2968 17.9858C9.17367 16.946 3.05716 10.8295 2.01732 6.70092C1.62919 5.24383 1.81022 3.69361 2.52363 2.3651C2.67415 2.07698 2.95373 1.87855 3.27535 1.83154C3.32555 1.82355 3.3763 1.81957 3.42717 1.81973C3.69151 1.81965 3.94487 1.92536 4.1307 2.11332L6.02592 4.00855C6.31755 4.29678 6.40369 4.73381 6.24318 5.11114C6.11904 5.40706 5.94191 5.67786 5.72052 5.91015C4.15338 7.47264 5.55595 10.2732 7.63842 12.3638Z" fill="white"/>
</svg>
