<svg width="30" height="30" viewBox="0 0 30 30" fill="none" xmlns="http://www.w3.org/2000/svg">
<path d="M11.8557 8.77788C12.552 7.17973 12.1999 5.3183 10.9681 4.08484L8.12391 1.242C7.17906 0.285863 5.83202 -0.157538 4.50394 0.0503429C3.16086 0.247594 1.99425 1.07794 1.36795 2.28235C-0.00726083 4.87042 -0.361014 7.88038 0.376729 10.7167C2.19421 17.9158 12.0889 27.8173 19.2866 29.6212C20.2582 29.8676 21.2566 29.9931 22.259 29.9948C24.1637 29.9935 26.0392 29.5254 27.721 28.6313C29.7961 27.5491 30.6011 24.9896 29.5189 22.9144C29.3202 22.5334 29.0648 22.1849 28.7613 21.8808L25.9184 19.0366C24.6845 17.8045 22.8226 17.4525 21.224 18.149C20.4781 18.4705 19.7977 18.9267 19.217 19.4947C18.5217 20.1942 15.957 19.1811 13.3896 16.6151C10.8221 14.049 9.81183 11.4843 10.5031 10.7862C11.0735 10.2055 11.532 9.52471 11.8557 8.77788ZM11.4576 18.5458C14.5841 21.6695 18.789 23.776 21.1382 21.4254C21.4842 21.0941 21.8876 20.8284 22.3285 20.6414C22.8949 20.4 23.5512 20.5292 23.9838 20.9673L26.8266 23.8101C27.1654 24.1451 27.3226 24.6224 27.2493 25.0931C27.178 25.5769 26.8781 25.9966 26.4435 26.2207C24.4526 27.2905 22.1289 27.5616 19.9452 26.9788C13.7605 25.419 4.58574 16.2442 3.02598 10.0514C2.44379 7.86574 2.71534 5.54042 3.78545 3.54765C4.01123 3.11547 4.43059 2.81782 4.91303 2.74731C4.98833 2.73532 5.06445 2.72936 5.14076 2.72959C5.53727 2.72947 5.9173 2.88804 6.19605 3.16998L9.03889 6.01282C9.47632 6.44518 9.60554 7.10071 9.36476 7.66672C9.17856 8.11059 8.91286 8.51678 8.58078 8.86522C6.23007 11.209 8.33392 15.4098 11.4576 18.5458Z" fill="url(#paint0_radial_73_819)"/>
<defs>
<radialGradient id="paint0_radial_73_819" cx="0" cy="0" r="1" gradientUnits="userSpaceOnUse" gradientTransform="translate(15 -9.81971) rotate(90) scale(39.8145 25.3941)">
<stop stop-color="#FF98A9"/>
<stop offset="1" stop-color="#FB5B74"/>
</radialGradient>
</defs>
</svg>
